<?xml version="1.0" encoding="UTF-8"?>
<svg id="Capa_2" data-name="Capa 2" xmlns="http://www.w3.org/2000/svg" viewBox="0 0 153.6 153.6">
  <defs>
    <style>
      .cls-1 {
        fill: #ec1c24;
      }

      .cls-1, .cls-2, .cls-3 {
        stroke-width: 0px;
      }

      .cls-2 {
        fill: #13294d;
      }

      .cls-3 {
        fill: #fff;
      }
    </style>
  </defs>
  <g id="Capa_1-2" data-name="Capa 1">
    <g>
      <rect class="cls-2" width="153.6" height="153.6" rx="14.66" ry="14.66"/>
      <path class="cls-3" d="m117.08,95.28c4.4-7.18,6.94-15.62,6.94-24.65h-22.63c0,13.58-11.01,24.59-24.59,24.59-11.02,0-20.34-7.25-23.47-17.24l.03-.03c-.75-2.35-1.15-4.85-1.15-7.44h-22.64v66.45c0,.59.48,1.07,1.07,1.07h24.61c.59,0,1.07-.48,1.07-1.07v-23.77c3.41,1.65,7.05,2.89,10.86,3.68l20.7,20.71c.28.28.66.44,1.05.44h29.75c1.33,0,1.99-1.61,1.05-2.55l-22.33-22.35c8.14-3.95,14.96-10.17,19.67-17.84Z"/>
      <path class="cls-1" d="m121.73,32.37l-4.65,4.79c-8.3-13.54-23.23-22.57-40.28-22.57-26.08,0-47.22,21.14-47.22,47.22v3.83h22.63v-3.83c0-13.58,11.01-24.59,24.59-24.59,11.02,0,20.34,7.25,23.47,17.24l-8.73,8.99c-.82.85-.22,2.26.96,2.26h30.19c.74,0,1.33-.6,1.33-1.33v-31.09c0-1.2-1.46-1.79-2.29-.93Z"/>
    </g>
  </g>
</svg>