<svg width="17" height="18" viewBox="0 0 17 18" fill="none" xmlns="http://www.w3.org/2000/svg">
<path d="M0.656494 9.24064L2.29578 7.53388M2.29578 7.53388L8.03328 1.56018L13.7708 7.53388M2.29578 7.53388V16.0677C2.29578 16.539 2.66275 16.9211 3.11542 16.9211H5.57435M13.7708 7.53388L15.4101 9.24064M13.7708 7.53388V16.0677C13.7708 16.539 13.4038 16.9211 12.9511 16.9211H10.4922M5.57435 16.9211C6.02703 16.9211 6.39399 16.539 6.39399 16.0677V12.6542C6.39399 12.1829 6.76096 11.8008 7.21364 11.8008H8.85292C9.3056 11.8008 9.67256 12.1829 9.67256 12.6542V16.0677C9.67256 16.539 10.0395 16.9211 10.4922 16.9211M5.57435 16.9211H10.4922" stroke="white" stroke-width="1.2" stroke-linecap="round" stroke-linejoin="round"/>
</svg>
