<svg width="20" height="18" viewBox="0 0 20 18" fill="none" xmlns="http://www.w3.org/2000/svg">
<path d="M13.3333 12.3332L10 8.9999M10 8.9999L6.66666 12.3332M10 8.9999V16.4999M16.9917 14.3249C17.8044 13.8818 18.4465 13.1806 18.8166 12.3321C19.1866 11.4835 19.2635 10.5359 19.0352 9.63881C18.8068 8.7417 18.2862 7.94616 17.5556 7.37778C16.8249 6.80939 15.9257 6.50052 15 6.4999H13.95C13.6978 5.52427 13.2276 4.61852 12.575 3.85073C11.9223 3.08295 11.104 2.47311 10.1817 2.06708C9.25946 1.66104 8.25712 1.46937 7.25009 1.50647C6.24307 1.54358 5.25755 1.80849 4.36764 2.28129C3.47774 2.7541 2.70659 3.42249 2.11218 4.23622C1.51777 5.04996 1.11557 5.98785 0.935814 6.9794C0.756055 7.97095 0.803418 8.99035 1.07434 9.96096C1.34527 10.9316 1.8327 11.8281 2.5 12.5832" stroke="white" stroke-width="1.67" stroke-linecap="round" stroke-linejoin="round"/>
</svg>
